<?xml version="1.0" encoding="UTF-8"?>
<svg id="Layer_2" data-name="Layer 2" xmlns="http://www.w3.org/2000/svg" viewBox="0 0 283.43 302.65">
  <defs>
    <style>
      .cls-1 {
        fill: #222426;
      }

      .cls-2 {
        fill: #d97941;
      }

      .cls-3 {
        fill: #3bd9bc;
      }
    </style>
  </defs>
  <g id="Layer_1-2" data-name="Layer 1">
    <path class="cls-3" d="M230.43,17.31h48.77c3.15,0,3.93,2.85,3.93,3.57V97.25h-57.42V20.88c0-2.14,1.57-3.57,4.72-3.57Z"/>
    <path class="cls-2" d="M228.47,95.85c-17.07-15.76-38.08-24.95-65.65-24.95-53.18,0-80.09,38.74-80.09,80.1,0,46.61,34.79,80.75,82.72,80.75,17.72,0,41.36-5.25,63.03-24.95v78.13c-15.76,7.88-40.7,17.72-73.53,17.72-44.64,0-84.03-17.07-109.64-41.36C23.63,240.94,0,205.49,0,152.31,0,102.42,20.35,62.37,49.24,36.76,84.03,5.91,124.08,0,151.65,0c29.54,0,53.84,5.91,76.81,17.07V95.85Z"/>
    <path class="cls-1" d="M228.57,53.96h54.86V248.69h-54.86v-25.18c-19.79,28.33-45.87,31.48-59.81,31.48-59.81,0-99.39-46.77-99.39-103.89S108.5,47.67,166.06,47.67c14.84,0,44.07,2.7,62.51,31.48v-25.18Zm-102.54,97.14c0,31.03,22.49,55.32,53.97,55.32s53.97-24.28,53.97-55.32-22.49-54.86-53.97-54.86-53.97,23.83-53.97,54.86Z"/>
  </g>
</svg>