<?xml version="1.0" encoding="utf-8"?>
<!-- Generator: Adobe Illustrator 26.5.0, SVG Export Plug-In . SVG Version: 6.00 Build 0)  -->
<svg version="1.1" id="Layer_2_00000159467805002117988670000006767891229828225952_"
	 xmlns="http://www.w3.org/2000/svg" xmlns:xlink="http://www.w3.org/1999/xlink" x="0px" y="0px" viewBox="0 0 1573.7 25.3"
	 style="enable-background:new 0 0 1573.7 25.3;" xml:space="preserve">
<style type="text/css">
	.st0{fill:#FFFFFF;}
</style>
<g id="Layer_2-2">
	<rect x="1564" y="0" class="st0" width="9.7" height="12.5"/>
	<rect x="1548.3" y="0" class="st0" width="15.6" height="2.9"/>
	<rect x="1532.8" y="0" class="st0" width="15.6" height="25.2"/>
	<rect x="1498.8" y="0" class="st0" width="35.1" height="15.3"/>
	<rect x="1483.2" y="0" class="st0" width="15.6" height="2.9"/>
	<rect x="1467.6" y="0" class="st0" width="15.6" height="25.2"/>
	<rect x="1433.6" y="0" class="st0" width="35.1" height="15.3"/>
	<rect x="1418" y="0" class="st0" width="15.6" height="2.9"/>
	<rect x="1402.4" y="0" class="st0" width="15.6" height="25.2"/>
	<rect x="1368.5" y="0" class="st0" width="35.1" height="15.3"/>
	<rect x="1352.9" y="0" class="st0" width="15.6" height="2.9"/>
	<rect x="1337.3" y="0" class="st0" width="15.6" height="25.2"/>
	<rect x="1303.3" y="0" class="st0" width="35.1" height="15.3"/>
	<rect x="1287.7" y="0" class="st0" width="15.6" height="2.9"/>
	<rect x="1272.1" y="0" class="st0" width="15.6" height="25.2"/>
	<rect x="1238.1" y="0" class="st0" width="35.1" height="15.3"/>
	<rect x="1222.5" y="0" class="st0" width="15.6" height="2.9"/>
	<rect x="1206.9" y="0" class="st0" width="15.6" height="25.2"/>
	<rect x="1172.9" y="0" class="st0" width="35.1" height="15.3"/>
	<rect x="1157.4" y="0" class="st0" width="15.6" height="2.9"/>
	<rect x="1141.8" y="0" class="st0" width="15.6" height="25.2"/>
	<rect x="1107.8" y="0" class="st0" width="35.1" height="15.3"/>
	<rect x="1092.2" y="0" class="st0" width="15.6" height="2.9"/>
	<rect x="1076.6" y="0" class="st0" width="15.6" height="25.2"/>
	<rect x="1042.6" y="0" class="st0" width="35.1" height="15.3"/>
	<rect x="1027" y="0" class="st0" width="15.6" height="2.9"/>
	<rect x="1011.4" y="0" class="st0" width="15.6" height="25.2"/>
	<rect x="977.5" y="0" class="st0" width="35.1" height="15.3"/>
	<rect x="961.9" y="0.1" class="st0" width="15.6" height="2.9"/>
	<rect x="946.3" y="0" class="st0" width="15.6" height="25.2"/>
	<rect x="912.3" y="0" class="st0" width="35.1" height="15.3"/>
	<rect x="896.7" y="0" class="st0" width="15.6" height="2.9"/>
	<rect x="881.1" y="0" class="st0" width="15.6" height="25.2"/>
	<rect x="847.1" y="0" class="st0" width="35.1" height="15.3"/>
	<rect x="831.5" y="0.1" class="st0" width="15.6" height="2.9"/>
	<rect x="815.9" y="0" class="st0" width="15.6" height="25.2"/>
	<rect x="782" y="0.1" class="st0" width="35.1" height="15.3"/>
	<rect x="766.4" y="0.1" class="st0" width="15.6" height="2.9"/>
	<rect x="750.8" y="0" class="st0" width="15.6" height="25.2"/>
	<rect x="716.8" y="0" class="st0" width="35.1" height="15.3"/>
	<rect x="701.2" y="0" class="st0" width="15.6" height="2.9"/>
	<rect x="685.6" y="0" class="st0" width="15.6" height="25.2"/>
	<rect x="651.6" y="0" class="st0" width="35.1" height="15.3"/>
	<rect x="636" y="0.1" class="st0" width="15.6" height="2.9"/>
	<rect x="620.4" y="0" class="st0" width="15.6" height="25.2"/>
	<rect x="586.5" y="0.1" class="st0" width="35.1" height="15.3"/>
	<rect x="570.9" y="0.1" class="st0" width="15.6" height="2.9"/>
	<rect x="555.3" y="0.1" class="st0" width="15.6" height="25.2"/>
	<rect x="521.3" y="0.1" class="st0" width="35.1" height="15.3"/>
	<rect x="505.7" y="0.1" class="st0" width="15.6" height="2.9"/>
	<rect x="490.1" y="0.1" class="st0" width="15.6" height="25.2"/>
	<rect x="456.1" y="0.1" class="st0" width="35.1" height="15.3"/>
	<rect x="440.5" y="0.1" class="st0" width="15.6" height="2.9"/>
	<rect x="424.9" y="0" class="st0" width="15.6" height="25.2"/>
	<rect x="391" y="0" class="st0" width="35.1" height="15.3"/>
	<rect x="375.4" y="0.1" class="st0" width="15.6" height="2.9"/>
	<rect x="359.8" y="0" class="st0" width="15.6" height="25.2"/>
	<rect x="325.8" y="0.1" class="st0" width="35.1" height="15.3"/>
	<rect x="310.2" y="0.1" class="st0" width="15.6" height="2.9"/>
	<rect x="294.6" y="0" class="st0" width="15.6" height="25.2"/>
	<rect x="260.6" y="0.1" class="st0" width="35.1" height="15.3"/>
	<rect x="245" y="0.1" class="st0" width="15.6" height="2.9"/>
	<rect x="229.4" y="0.1" class="st0" width="15.6" height="25.2"/>
	<rect x="195.5" y="0.1" class="st0" width="35.1" height="15.3"/>
	<rect x="179.9" y="0.1" class="st0" width="15.6" height="2.9"/>
	<rect x="164.3" y="0.1" class="st0" width="15.6" height="25.2"/>
	<rect x="130.3" y="0.1" class="st0" width="35.1" height="15.3"/>
	<rect x="114.7" y="0.1" class="st0" width="15.6" height="2.9"/>
	<rect x="99.1" y="0.1" class="st0" width="15.6" height="25.2"/>
	<rect x="65.1" y="0.1" class="st0" width="35.1" height="15.3"/>
	<rect x="49.5" y="0.1" class="st0" width="15.6" height="2.9"/>
	<rect x="33.9" y="0.1" class="st0" width="15.6" height="25.2"/>
	<rect x="0" y="0.1" class="st0" width="35.1" height="15.3"/>
</g>
</svg>
