<?xml version="1.0" encoding="UTF-8"?>
<svg id="Layer_2" data-name="Layer 2" xmlns="http://www.w3.org/2000/svg" viewBox="0 0 1573.65 25.29">
  <g id="Layer_2-2" data-name="Layer 2">
    <rect y="12.79" width="9.7" height="12.49"/>
    <rect x="9.7" y="22.39" width="15.6" height="2.89"/>
    <rect x="25.28" y=".09" width="15.6" height="25.2"/>
    <rect x="39.78" y="9.99" width="35.1" height="15.3"/>
    <rect x="74.88" y="22.4" width="15.6" height="2.89"/>
    <rect x="90.47" y=".08" width="15.6" height="25.2"/>
    <rect x="104.98" y="9.99" width="35.1" height="15.3"/>
    <rect x="140.06" y="22.38" width="15.6" height="2.89"/>
    <rect x="155.66" y=".08" width="15.6" height="25.2"/>
    <rect x="170.09" y="9.98" width="35.1" height="15.3"/>
    <rect x="205.19" y="22.36" width="15.6" height="2.89"/>
    <rect x="220.77" y=".05" width="15.6" height="25.2"/>
    <rect x="235.27" y="9.95" width="35.1" height="15.3"/>
    <rect x="270.37" y="22.39" width="15.6" height="2.89"/>
    <rect x="285.96" y=".07" width="15.6" height="25.2"/>
    <rect x="300.47" y="9.98" width="35.1" height="15.3"/>
    <rect x="335.58" y="22.39" width="15.6" height="2.89"/>
    <rect x="351.18" y=".08" width="15.6" height="25.2"/>
    <rect x="365.61" y="9.99" width="35.1" height="15.3"/>
    <rect x="400.68" y="22.38" width="15.6" height="2.89"/>
    <rect x="416.27" y=".08" width="15.6" height="25.2"/>
    <rect x="430.77" y="9.98" width="35.1" height="15.3"/>
    <rect x="465.87" y="22.39" width="15.6" height="2.89"/>
    <rect x="481.45" y=".07" width="15.6" height="25.2"/>
    <rect x="495.97" y="9.98" width="35.1" height="15.3"/>
    <rect x="531.04" y="22.38" width="15.6" height="2.89"/>
    <rect x="546.64" y=".07" width="15.6" height="25.2"/>
    <rect x="561.08" y="9.98" width="35.1" height="15.3"/>
    <rect x="596.17" y="22.35" width="15.6" height="2.89"/>
    <rect x="611.76" y=".05" width="15.6" height="25.2"/>
    <rect x="626.26" y="9.95" width="35.1" height="15.3"/>
    <rect x="661.36" y="22.36" width="15.6" height="2.89"/>
    <rect x="676.94" y=".04" width="15.6" height="25.2"/>
    <rect x="691.46" y="9.95" width="35.1" height="15.3"/>
    <rect x="726.53" y="22.35" width="15.6" height="2.89"/>
    <rect x="742.13" y=".04" width="15.6" height="25.2"/>
    <rect x="756.57" y="9.94" width="35.1" height="15.3"/>
    <rect x="791.68" y="22.35" width="15.6" height="2.89"/>
    <rect x="807.27" y=".05" width="15.6" height="25.2"/>
    <rect x="821.77" y="9.95" width="35.1" height="15.3"/>
    <rect x="856.87" y="22.36" width="15.6" height="2.89"/>
    <rect x="872.45" y=".04" width="15.6" height="25.2"/>
    <rect x="886.97" y="9.95" width="35.1" height="15.3"/>
    <rect x="922.04" y="22.35" width="15.6" height="2.89"/>
    <rect x="937.64" y=".04" width="15.6" height="25.2"/>
    <rect x="952.08" y="9.94" width="35.1" height="15.3"/>
    <rect x="987.17" y="22.32" width="15.6" height="2.89"/>
    <rect x="1002.76" y=".02" width="15.6" height="25.2"/>
    <rect x="1017.26" y="9.92" width="35.1" height="15.3"/>
    <rect x="1052.36" y="22.35" width="15.6" height="2.89"/>
    <rect x="1067.94" y=".03" width="15.6" height="25.2"/>
    <rect x="1082.46" y="9.94" width="35.1" height="15.3"/>
    <rect x="1117.56" y="22.35" width="15.6" height="2.89"/>
    <rect x="1133.16" y=".04" width="15.6" height="25.2"/>
    <rect x="1147.59" y="9.95" width="35.1" height="15.3"/>
    <rect x="1182.67" y="22.35" width="15.6" height="2.89"/>
    <rect x="1198.25" y=".04" width="15.6" height="25.2"/>
    <rect x="1212.75" y="9.94" width="35.1" height="15.3"/>
    <rect x="1247.85" y="22.35" width="15.6" height="2.89"/>
    <rect x="1263.43" y=".04" width="15.6" height="25.2"/>
    <rect x="1277.95" y="9.94" width="35.1" height="15.3"/>
    <rect x="1313.03" y="22.34" width="15.6" height="2.89"/>
    <rect x="1328.63" y=".03" width="15.6" height="25.2"/>
    <rect x="1343.06" y="9.94" width="35.1" height="15.3"/>
    <rect x="1378.15" y="22.32" width="15.6" height="2.89"/>
    <rect x="1393.74" y=".01" width="15.6" height="25.2"/>
    <rect x="1408.24" y="9.91" width="35.1" height="15.3"/>
    <rect x="1443.34" y="22.32" width="15.6" height="2.89"/>
    <rect x="1458.92" y="0" width="15.6" height="25.2"/>
    <rect x="1473.44" y="9.91" width="35.1" height="15.3"/>
    <rect x="1508.52" y="22.31" width="15.6" height="2.89"/>
    <rect x="1524.12" width="15.6" height="25.2"/>
    <rect x="1538.55" y="9.91" width="35.1" height="15.3"/>
  </g>
</svg>