<?xml version="1.0" encoding="UTF-8"?>
<svg id="Layer_2" data-name="Layer 2" xmlns="http://www.w3.org/2000/svg" viewBox="0 0 73 78.55">
  <defs>
    <style>
      .cls-1 {
        fill: #222426;
      }

      .cls-2 {
        fill: #3bd9bc;
      }

      .cls-3 {
        fill: #d97941;
        stroke: white;
        stroke-miterlimit: 10;
        stroke-width: 2px;
      }
    </style>
  </defs>
  <g id="Layer_1-2" data-name="Layer 1">
    <path class="cls-1" d="M57.14,14.78h15.82V63.77h-15.82v-5.93c-4.28,6.59-10.43,7.58-14.5,7.58-7.03,0-12.96-1.76-18.34-7.47-5.16-5.49-7.14-11.86-7.14-18.34,0-8.24,3.08-15.27,7.58-19.77,4.28-4.28,10.21-6.7,17.02-6.7,4.17,0,10.87,.99,15.38,7.14v-5.49Zm-20.1,15.49c-1.65,1.65-3.62,4.5-3.62,8.9s1.87,7.25,3.3,8.79c2.2,2.31,5.6,3.84,9.34,3.84,3.19,0,6.15-1.32,8.24-3.4,2.09-1.98,3.84-5.05,3.84-9.23,0-3.51-1.32-6.81-3.62-9.01-2.42-2.31-5.93-3.4-8.79-3.4-3.4,0-6.59,1.43-8.68,3.51Z"/>
    <rect class="cls-2" x="58.79" y="6.01" width="14.21" height="7.12"/>
    <path class="cls-3" d="M57.34,73.6c-6.48,3.29-11.75,3.95-16.14,3.95-13.51,0-22.62-4.61-28.78-10.65C5.83,60.53,1,50.86,1,39.11S5.83,17.91,12.42,11.54C18.9,5.28,28.35,1,39.77,1c4.83,0,10.43,.99,17.57,4.06V24.61c-3.73-3.95-9.34-7.8-17.13-7.8-6.15,0-11.09,1.98-14.94,5.71-4.06,3.95-6.92,9.88-6.92,16.91,0,7.58,3.08,12.96,6.37,16.14,1.54,1.54,6.81,6.15,15.82,6.15,4.39,0,10.32-1.21,16.8-7.58v19.44Z"/>
  </g>
</svg>