<?xml version="1.0" encoding="UTF-8"?>
<svg id="Layer_2" data-name="Layer 2" xmlns="http://www.w3.org/2000/svg" viewBox="0 0 189.97 99.85">
  <defs>
    <style>
      .cls-1 {
        fill: #222426;
      }

      .cls-2 {
        fill: #a6a6a6;
      }

      .cls-3, .cls-4 {
        fill: #3bd9bc;
      }

      .cls-4 {
        stroke: #f2f2f2;
        stroke-miterlimit: 10;
        stroke-width: .81px;
      }

      .cls-5 {
        fill: #f2f2f2;
      }
    </style>
  </defs>
  <g id="objects">
    <path class="cls-2" d="M60.08,0h72.98c5.17,0,9.37,4.2,9.37,9.37V99.53H50.72V9.37c0-5.17,4.2-9.37,9.37-9.37Z"/>
    <path class="cls-1" d="M9.37,34.95H59.81c5.17,0,9.37,4.2,9.37,9.37v55.22H0V44.31c0-5.17,4.2-9.37,9.37-9.37Z"/>
    <path class="cls-1" d="M115.48,16.48h65.13c5.17,0,9.37,4.2,9.37,9.37V99.53H106.11V25.85c0-5.17,4.2-9.37,9.37-9.37Z"/>
    <path class="cls-5" d="M60.08,49.13h92.05c5.17,0,9.37,4.2,9.37,9.37v41.35H50.72V58.5c0-5.17,4.2-9.37,9.37-9.37Z"/>
    <g id="ladder">
      <g>
        <line class="cls-4" x1="29.85" y1="57.51" x2="27.82" y2="99.53"/>
        <line class="cls-4" x1="34.04" y1="57.51" x2="35.72" y2="99.53"/>
      </g>
      <line class="cls-4" x1="29.38" y1="66.93" x2="34.42" y2="66.93"/>
      <line class="cls-4" x1="28.81" y1="79.03" x2="34.88" y2="79.03"/>
      <line class="cls-4" x1="28.23" y1="91.13" x2="35.38" y2="91.13"/>
    </g>
    <path class="cls-3" d="M90.16,71.79h15.13c.45,0,.82,.37,.82,.82v26.92h-16.77v-26.92c0-.45,.37-.82,.82-.82Z"/>
  </g>
</svg>