<?xml version="1.0" encoding="UTF-8"?>
<svg id="Layer_2" data-name="Layer 2" xmlns="http://www.w3.org/2000/svg" viewBox="0 0 283.09 112.37">
  <defs>
    <style>
      .cls-1 {
        fill: #222426;
      }

      .cls-2 {
        stroke: #f2f2f2;
        stroke-miterlimit: 10;
        stroke-width: .55px;
      }

      .cls-2, .cls-3 {
        fill: #3bd9bc;
      }

      .cls-4 {
        fill: #d97941;
      }

      .cls-5 {
        fill: white;
      }
    </style>
  </defs>
  <g id="text">
    <g>
      <path d="M22.35,89.85c-.86-.86-2.17-1.88-3.56-2.54-1.43-.66-3.11-1.06-4.71-1.06-6.3,0-10.97,5.08-10.97,11.38,0,7.41,6.02,11.14,11.01,11.14,1.84,0,3.64-.53,5.08-1.27,1.56-.78,2.66-1.8,3.15-2.29v3.77c-3.03,2.17-6.18,2.66-8.23,2.66-8.11,0-14.12-6.14-14.12-14.04s6.1-14.21,14.29-14.21c1.64,0,4.79,.2,8.06,2.7v3.77Z"/>
      <path d="M26.44,97.51c0-8.15,6.35-14.12,14.21-14.12s14.21,5.98,14.21,14.12-6.3,14.12-14.21,14.12-14.21-6.02-14.21-14.12Zm3.11,0c0,6.26,4.95,11.26,11.09,11.26s11.1-4.99,11.1-11.26-4.95-11.26-11.1-11.26-11.09,4.99-11.09,11.26Z"/>
      <path d="M65.37,83.83c2.74,0,5.04,.33,6.88,1.92,2.01,1.72,2.5,4.13,2.5,5.85,0,3.85-2.42,7.66-8.64,7.66h-2.66v11.87h-3.03v-27.31h4.95Zm-1.92,12.57h2.5c3.6,0,5.77-1.8,5.77-4.95,0-4.34-4.05-4.75-6.02-4.75h-2.25v9.7Z"/>
      <path d="M84.04,83.83c2.74,0,5.04,.33,6.88,1.92,2.01,1.72,2.5,4.13,2.5,5.85,0,3.85-2.42,7.66-8.64,7.66h-2.66v11.87h-3.03v-27.31h4.95Zm-1.92,12.57h2.5c3.6,0,5.77-1.8,5.77-4.95,0-4.34-4.05-4.75-6.02-4.75h-2.25v9.7Z"/>
      <path d="M111.92,86.7h-11.14v8.11h10.81v2.87h-10.81v10.6h11.14v2.87h-14.17v-27.31h14.17v2.87Z"/>
      <path d="M121.86,83.83c1.84,0,4.58,.12,6.63,1.51,1.6,1.06,2.99,3.15,2.99,6.06,0,4.18-2.74,7.25-6.88,7.53l8.68,12.2h-3.68l-8.31-11.95h-.78v11.95h-3.03v-27.31h4.38Zm-1.35,12.65h1.92c3.77,0,6.02-1.8,6.02-4.99,0-1.51-.45-3.03-2.17-4.01-1.23-.7-2.62-.78-3.93-.78h-1.84v9.78Z"/>
    </g>
    <g>
      <path class="cls-4" d="M156.23,103.44h-11.63l-3.28,7.7h-3.36l12.57-28.62,12.24,28.62h-3.36l-3.19-7.7Zm-1.19-2.87l-4.58-10.93-4.67,10.93h9.25Z"/>
      <path class="cls-4" d="M186.65,89.85c-.86-.86-2.17-1.88-3.56-2.54-1.43-.66-3.11-1.06-4.71-1.06-6.3,0-10.97,5.08-10.97,11.38,0,7.41,6.02,11.14,11.01,11.14,1.84,0,3.64-.53,5.08-1.27,1.56-.78,2.66-1.8,3.15-2.29v3.77c-3.03,2.17-6.18,2.66-8.23,2.66-8.11,0-14.12-6.14-14.12-14.04s6.1-14.21,14.29-14.21c1.64,0,4.79,.2,8.07,2.7v3.77Z"/>
      <path class="cls-4" d="M213.09,89.85c-.86-.86-2.17-1.88-3.56-2.54-1.43-.66-3.11-1.06-4.71-1.06-6.3,0-10.97,5.08-10.97,11.38,0,7.41,6.02,11.14,11.01,11.14,1.84,0,3.64-.53,5.08-1.27,1.55-.78,2.66-1.8,3.15-2.29v3.77c-3.03,2.17-6.18,2.66-8.23,2.66-8.11,0-14.12-6.14-14.12-14.04s6.1-14.21,14.29-14.21c1.64,0,4.79,.2,8.07,2.7v3.77Z"/>
      <path class="cls-4" d="M232.82,86.7h-11.13v8.11h10.81v2.87h-10.81v10.6h11.13v2.87h-14.16v-27.31h14.16v2.87Z"/>
      <path class="cls-4" d="M238.39,111.14v-28.45l21.29,22.31v-21.17h3.03v28.53l-21.29-22.31v21.08h-3.03Z"/>
      <path class="cls-4" d="M276.46,86.7v24.44h-3.03v-24.44h-6.63v-2.87h16.29v2.87h-6.63Z"/>
    </g>
  </g>
  <g id="objects">
    <path class="cls-4" d="M108.72,0h60.29c2.71,0,4.9,2.2,4.9,4.9V76.06H103.81V4.9c0-2.71,2.2-4.9,4.9-4.9Z"/>
    <path class="cls-1" d="M69.96,26.71h43.07c2.7,0,4.9,2.2,4.9,4.9v44.46h-52.87V31.61c0-2.7,2.2-4.9,4.9-4.9Z"/>
    <path class="cls-1" d="M151.05,12.6h54.29c2.7,0,4.9,2.2,4.9,4.9v58.57h-64.09V17.5c0-2.7,2.2-4.9,4.9-4.9Z"/>
    <path class="cls-5" d="M108.71,37.94h74.86c2.7,0,4.9,2.2,4.9,4.9v33.86H103.81V42.84c0-2.7,2.2-4.9,4.9-4.9Z"/>
    <g id="ladder">
      <g>
        <line class="cls-2" x1="88.08" y1="47.29" x2="86.68" y2="76.06"/>
        <line class="cls-2" x1="90.94" y1="47.29" x2="92.09" y2="76.06"/>
      </g>
      <line class="cls-2" x1="87.75" y1="53.74" x2="91.2" y2="53.74"/>
      <line class="cls-2" x1="87.36" y1="62.03" x2="91.52" y2="62.03"/>
      <line class="cls-2" x1="86.96" y1="70.31" x2="91.86" y2="70.31"/>
    </g>
    <rect class="cls-3" x="132.45" y="54.87" width="12.81" height="21.2"/>
  </g>
</svg>