<?xml version="1.0" encoding="UTF-8"?>
<svg id="Layer_2" data-name="Layer 2" xmlns="http://www.w3.org/2000/svg" viewBox="0 0 281.64 29.84">
  <defs>
    <style>
      .cls-1 {
        fill: #d97941;
      }
    </style>
  </defs>
  <g id="text">
    <g>
      <path d="M22.35,7.27c-.86-.86-2.17-1.88-3.56-2.54-1.43-.66-3.11-1.06-4.71-1.06C7.78,3.66,3.11,8.74,3.11,15.05c0,7.41,6.02,11.14,11.01,11.14,1.84,0,3.64-.53,5.08-1.27,1.56-.78,2.66-1.8,3.15-2.29v3.77c-3.03,2.17-6.18,2.66-8.23,2.66C6.02,29.05,0,22.91,0,15S6.1,.8,14.29,.8c1.64,0,4.79,.2,8.06,2.7v3.77Z"/>
      <path d="M26.44,14.92c0-8.15,6.35-14.12,14.21-14.12s14.21,5.98,14.21,14.12-6.3,14.12-14.21,14.12-14.21-6.02-14.21-14.12Zm3.11,0c0,6.26,4.95,11.26,11.09,11.26s11.1-4.99,11.1-11.26-4.95-11.26-11.1-11.26-11.09,4.99-11.09,11.26Z"/>
      <path d="M65.37,1.25c2.74,0,5.04,.33,6.88,1.92,2.01,1.72,2.5,4.13,2.5,5.85,0,3.85-2.42,7.66-8.64,7.66h-2.66v11.87h-3.03V1.25h4.95Zm-1.92,12.57h2.5c3.6,0,5.77-1.8,5.77-4.95,0-4.34-4.05-4.75-6.02-4.75h-2.25V13.82Z"/>
      <path d="M84.04,1.25c2.74,0,5.04,.33,6.88,1.92,2.01,1.72,2.5,4.13,2.5,5.85,0,3.85-2.42,7.66-8.64,7.66h-2.66v11.87h-3.03V1.25h4.95Zm-1.92,12.57h2.5c3.6,0,5.77-1.8,5.77-4.95,0-4.34-4.05-4.75-6.02-4.75h-2.25V13.82Z"/>
      <path d="M111.92,4.11h-11.14V12.22h10.81v2.87h-10.81v10.6h11.14v2.87h-14.17V1.25h14.17v2.87Z"/>
      <path d="M121.86,1.25c1.84,0,4.58,.12,6.63,1.51,1.6,1.06,2.99,3.15,2.99,6.06,0,4.18-2.74,7.25-6.88,7.53l8.68,12.2h-3.68l-8.31-11.95h-.78v11.95h-3.03V1.25h4.38Zm-1.35,12.65h1.92c3.77,0,6.02-1.8,6.02-4.99,0-1.51-.45-3.03-2.17-4.01-1.23-.7-2.62-.78-3.93-.78h-1.84V13.9Z"/>
    </g>
    <g>
      <path class="cls-1" d="M154.79,20.92h-11.63l-3.28,7.7h-3.36L149.1,0l12.24,28.62h-3.36l-3.19-7.7Zm-1.19-2.87l-4.58-10.93-4.67,10.93h9.25Z"/>
      <path class="cls-1" d="M185.2,7.33c-.86-.86-2.17-1.88-3.56-2.54-1.43-.66-3.11-1.06-4.71-1.06-6.3,0-10.97,5.08-10.97,11.38,0,7.41,6.02,11.14,11.01,11.14,1.84,0,3.64-.53,5.08-1.27,1.56-.78,2.66-1.8,3.15-2.29v3.77c-3.03,2.17-6.18,2.66-8.23,2.66-8.11,0-14.12-6.14-14.12-14.04s6.1-14.21,14.29-14.21c1.64,0,4.79,.2,8.07,2.7v3.77Z"/>
      <path class="cls-1" d="M211.65,7.33c-.86-.86-2.17-1.88-3.56-2.54-1.43-.66-3.11-1.06-4.71-1.06-6.3,0-10.97,5.08-10.97,11.38,0,7.41,6.02,11.14,11.01,11.14,1.84,0,3.64-.53,5.08-1.27,1.55-.78,2.66-1.8,3.15-2.29v3.77c-3.03,2.17-6.18,2.66-8.23,2.66-8.11,0-14.12-6.14-14.12-14.04s6.1-14.21,14.29-14.21c1.64,0,4.79,.2,8.07,2.7v3.77Z"/>
      <path class="cls-1" d="M231.38,4.18h-11.13V12.28h10.81v2.87h-10.81v10.6h11.13v2.87h-14.16V1.31h14.16v2.87Z"/>
      <path class="cls-1" d="M236.94,28.62V.16l21.29,22.31V1.31h3.03V29.84l-21.29-22.31V28.62h-3.03Z"/>
      <path class="cls-1" d="M275.01,4.18V28.62h-3.03V4.18h-6.63V1.31h16.29v2.87h-6.63Z"/>
    </g>
  </g>
</svg>