<?xml version="1.0" encoding="UTF-8"?>
<svg id="Layer_2" data-name="Layer 2" xmlns="http://www.w3.org/2000/svg" xmlns:xlink="http://www.w3.org/1999/xlink" viewBox="0 0 214.75 115.77">
  <defs>
    <style>
      .cls-1 {
        fill: #222426;
      }

      .cls-2 {
        fill: #d97941;
      }

      .cls-3 {
        stroke: #f2f2f2;
        stroke-width: .24px;
      }

      .cls-3, .cls-4, .cls-5 {
        fill: none;
      }

      .cls-3, .cls-5 {
        stroke-miterlimit: 10;
      }

      .cls-6 {
        clip-path: url(#clippath-1);
      }

      .cls-7 {
        fill: #3bd9bc;
      }

      .cls-8 {
        clip-path: url(#clippath);
      }

      .cls-9 {
        fill: #f2f2f2;
      }

      .cls-5 {
        stroke: #222426;
        stroke-width: 1.52px;
      }
    </style>
    <clipPath id="clippath">
      <rect class="cls-4" x="75.4" y="81.99" width="63.94" height="33.78"/>
    </clipPath>
    <clipPath id="clippath-1">
      <rect class="cls-4" x="75.4" y="81.99" width="63.94" height="33.78"/>
    </clipPath>
  </defs>
  <g id="objects">
    <rect class="cls-5" x=".76" y=".76" width="213.24" height="113.98" rx="7.19" ry="7.19"/>
    <g>
      <path d="M70.76,42.96h3.51l-2.48,20.21h-3.51l.34-2.82c-.63,.88-1.51,1.8-2.53,2.39-1.46,.83-2.97,1.02-4.19,1.02-2.43,0-4.67-.49-6.57-2.48-1.51-1.61-2.63-3.9-2.63-7.21,0-4.14,1.61-7.16,3.51-8.96,1.9-1.8,4.24-2.63,7.25-2.63,1.36,0,2.82,.19,4.29,.97,1.22,.63,2.04,1.41,2.68,2.39l.34-2.87Zm-11.88,4.53c-1.51,1.41-2.58,3.85-2.58,6.33,0,2,.73,4.04,2.09,5.31,1.22,1.17,2.68,1.51,4.09,1.51,2.19,0,3.85-.73,5.02-2,1.46-1.51,2.29-4.09,2.29-6.57,0-2.73-1.22-4.24-1.9-4.87-.83-.78-2.14-1.61-4.14-1.61-2.24,0-3.85,.92-4.87,1.9Z"/>
      <path d="M81.91,63.17h-3.51l4.38-35.5h3.51l-2.24,18.11c.68-.92,1.66-1.8,2.63-2.34,1.22-.68,2.48-.97,4.04-.97,2.34,0,4.72,.54,6.62,2.39,2.29,2.24,2.63,5.21,2.63,6.87,0,3.6-1.22,6.96-3.51,9.2-2.29,2.24-4.77,2.82-7.3,2.82-1.36,0-2.97-.19-4.48-1.07-1.36-.83-2.14-1.95-2.43-2.43l-.34,2.92Zm11.88-4.33c1.75-1.7,2.58-4.43,2.58-6.52s-.78-3.85-1.85-4.92c-1.07-1.12-2.63-1.8-4.38-1.8-1.32,0-3.12,.34-4.77,1.95-1.56,1.51-2.53,3.85-2.53,6.14,0,2.14,.78,3.99,2.04,5.26,.92,.93,2.34,1.7,4.33,1.7,2.14,0,3.65-.93,4.58-1.8Z"/>
      <path d="M106.65,60.98c-1.41-1.51-2.58-3.8-2.58-7.06,0-2.92,.97-5.94,3.65-8.42,2.24-2.04,4.82-3.02,8.08-3.02s5.7,1.07,7.4,2.78c2.04,2.04,2.48,4.53,2.48,6.62,0,4.38-1.8,7.21-3.41,8.76-2.58,2.53-5.7,3.12-8.42,3.12-2.87,0-5.26-.73-7.21-2.78Zm3.6-13.15c-1.7,1.66-2.58,3.9-2.58,6.33,0,2.29,.97,3.75,1.75,4.58,.73,.78,2.19,1.9,4.67,1.9s4.33-1.07,5.5-2.34c1.51-1.61,2.43-4.04,2.43-6.38,0-2.04-.78-3.55-1.66-4.48-1.02-1.07-2.63-1.85-4.62-1.85-1.36,0-3.55,.34-5.5,2.24Z"/>
      <path d="M134.45,53.63c-.1,.93-.19,1.66-.19,2.63,0,1.31,.15,2.43,1.22,3.36,.78,.68,1.9,1.02,3.02,1.02,1.41,0,2.53-.54,3.26-1.22,1.17-1.17,1.41-2.97,1.7-5.26l1.36-11.2h3.51l-1.41,11.59c-.34,2.68-.68,5.26-2.48,7.11-1.85,1.85-4.33,2.09-5.84,2.09-2.73,0-4.58-.68-5.89-1.85-1.56-1.36-2-3.07-2-5.11,0-.97,.19-2.58,.29-3.46l1.27-10.37h3.51l-1.31,10.66Z"/>
      <path d="M158.16,46.18l-2.09,16.99h-3.51l2.09-16.99h-2.14l.39-3.21h2.14l.88-7.3h3.51l-.88,7.3h3.51l-.39,3.21h-3.51Z"/>
    </g>
    <g id="Artwork_2" data-name="Artwork 2">
      <g class="cls-8">
        <g class="cls-6">
          <path class="cls-2" d="M123.35,115.5h-30.87v-31.34c0-1.19,.97-2.16,2.16-2.16h26.55c1.19,0,2.16,.97,2.16,2.16v31.34Z"/>
          <path class="cls-1" d="M98.69,115.5h-23.29v-19.58c0-1.19,.97-2.16,2.16-2.16h18.97c1.19,0,2.16,.97,2.16,2.16v19.58Z"/>
          <path class="cls-1" d="M139.35,115.5h-28.23v-25.8c0-1.19,.97-2.16,2.16-2.16h23.91c1.19,0,2.16,.97,2.16,2.16v25.8Z"/>
          <path class="cls-9" d="M129.76,115.77h-37.29v-14.91c0-1.19,.97-2.16,2.16-2.16h32.97c1.19,0,2.16,.97,2.16,2.16v14.91Z"/>
          <line class="cls-7" x1="85.54" y1="102.82" x2="84.93" y2="115.5"/>
          <line class="cls-3" x1="85.54" y1="102.82" x2="84.93" y2="115.5"/>
          <line class="cls-7" x1="86.81" y1="102.82" x2="87.31" y2="115.5"/>
          <line class="cls-3" x1="86.81" y1="102.82" x2="87.31" y2="115.5"/>
          <line class="cls-3" x1="85.4" y1="105.66" x2="86.92" y2="105.66"/>
          <line class="cls-3" x1="85.23" y1="109.31" x2="87.06" y2="109.31"/>
          <line class="cls-3" x1="85.05" y1="112.96" x2="87.21" y2="112.96"/>
          <rect class="cls-7" x="105.09" y="106.16" width="5.64" height="9.34"/>
        </g>
      </g>
    </g>
  </g>
</svg>