<?xml version="1.0" encoding="UTF-8"?>
<svg id="Layer_2" data-name="Layer 2" xmlns="http://www.w3.org/2000/svg" xmlns:xlink="http://www.w3.org/1999/xlink" viewBox="0 0 214.75 115.77">
  <defs>
    <style>
      .cls-1 {
        fill: #222426;
      }

      .cls-2 {
        fill: #d97941;
      }

      .cls-3 {
        stroke: #f2f2f2;
        stroke-width: .24px;
      }

      .cls-3, .cls-4, .cls-5 {
        fill: none;
      }

      .cls-3, .cls-5 {
        stroke-miterlimit: 10;
      }

      .cls-6 {
        clip-path: url(#clippath-1);
      }

      .cls-7 {
        fill: #3bd9bc;
      }

      .cls-8 {
        clip-path: url(#clippath);
      }

      .cls-9 {
        fill: #f2f2f2;
      }

      .cls-5 {
        stroke: #222426;
        stroke-width: 1.52px;
      }
    </style>
    <clipPath id="clippath">
      <rect class="cls-4" x="75.4" y="81.99" width="63.94" height="33.78"/>
    </clipPath>
    <clipPath id="clippath-1">
      <rect class="cls-4" x="75.4" y="81.99" width="63.94" height="33.78"/>
    </clipPath>
  </defs>
  <g id="objects">
    <g>
      <path d="M76.12,63.17h-3.51l4.38-35.5h3.51l-2.24,18.11c.68-.92,1.66-1.8,2.63-2.34,1.22-.68,2.48-.97,4.04-.97,2.34,0,4.72,.54,6.62,2.39,2.29,2.24,2.63,5.21,2.63,6.87,0,3.6-1.22,6.96-3.51,9.2-2.29,2.24-4.77,2.82-7.3,2.82-1.36,0-2.97-.19-4.48-1.07-1.36-.83-2.14-1.95-2.43-2.43l-.34,2.92Zm11.88-4.33c1.75-1.7,2.58-4.43,2.58-6.52s-.78-3.85-1.85-4.92c-1.07-1.12-2.63-1.8-4.38-1.8-1.32,0-3.12,.34-4.77,1.95-1.56,1.51-2.53,3.85-2.53,6.14,0,2.14,.78,3.99,2.04,5.26,.92,.93,2.34,1.7,4.33,1.7,2.14,0,3.65-.93,4.58-1.8Z"/>
      <path d="M102.95,53.63c-.1,.93-.19,1.66-.19,2.63,0,1.31,.15,2.43,1.22,3.36,.78,.68,1.9,1.02,3.02,1.02,1.41,0,2.53-.54,3.26-1.22,1.17-1.17,1.41-2.97,1.7-5.26l1.36-11.2h3.51l-1.41,11.59c-.34,2.68-.68,5.26-2.48,7.11-1.85,1.85-4.33,2.09-5.84,2.09-2.73,0-4.58-.68-5.89-1.85-1.56-1.36-2-3.07-2-5.11,0-.97,.19-2.58,.29-3.46l1.27-10.37h3.51l-1.31,10.66Z"/>
      <path d="M127.58,61.27l-7.06-18.31h3.89l5.36,14.46,8.38-14.46h3.99l-18.7,31.41h-3.89l8.03-13.1Z"/>
    </g>
    <g id="Artwork_2" data-name="Artwork 2">
      <g class="cls-8">
        <g class="cls-6">
          <path class="cls-2" d="M123.35,115.5h-30.87v-31.34c0-1.19,.97-2.16,2.16-2.16h26.55c1.19,0,2.16,.97,2.16,2.16v31.34Z"/>
          <path class="cls-1" d="M98.69,115.5h-23.29v-19.58c0-1.19,.97-2.16,2.16-2.16h18.97c1.19,0,2.16,.97,2.16,2.16v19.58Z"/>
          <path class="cls-1" d="M139.35,115.5h-28.23v-25.8c0-1.19,.97-2.16,2.16-2.16h23.91c1.19,0,2.16,.97,2.16,2.16v25.8Z"/>
          <path class="cls-9" d="M129.76,115.77h-37.29v-14.91c0-1.19,.97-2.16,2.16-2.16h32.97c1.19,0,2.16,.97,2.16,2.16v14.91Z"/>
          <line class="cls-7" x1="85.54" y1="102.82" x2="84.93" y2="115.5"/>
          <line class="cls-3" x1="85.54" y1="102.82" x2="84.93" y2="115.5"/>
          <line class="cls-7" x1="86.81" y1="102.82" x2="87.31" y2="115.5"/>
          <line class="cls-3" x1="86.81" y1="102.82" x2="87.31" y2="115.5"/>
          <line class="cls-3" x1="85.4" y1="105.66" x2="86.92" y2="105.66"/>
          <line class="cls-3" x1="85.23" y1="109.31" x2="87.06" y2="109.31"/>
          <line class="cls-3" x1="85.05" y1="112.96" x2="87.21" y2="112.96"/>
          <rect class="cls-7" x="105.09" y="106.16" width="5.64" height="9.34"/>
        </g>
      </g>
    </g>
  </g>
</svg>