<?xml version="1.0" encoding="UTF-8"?>
<svg id="Layer_2" data-name="Layer 2" xmlns="http://www.w3.org/2000/svg" xmlns:xlink="http://www.w3.org/1999/xlink" viewBox="0 0 214.75 115.77">
  <defs>
    <style>
      .cls-1 {
        fill: #222426;
      }

      .cls-2 {
        fill: #d97941;
      }

      .cls-3 {
        stroke: #f2f2f2;
        stroke-width: .24px;
      }

      .cls-3, .cls-4, .cls-5 {
        fill: none;
      }

      .cls-3, .cls-5 {
        stroke-miterlimit: 10;
      }

      .cls-6 {
        clip-path: url(#clippath-1);
      }

      .cls-7 {
        fill: #3bd9bc;
      }

      .cls-8 {
        clip-path: url(#clippath);
      }

      .cls-9 {
        fill: #f2f2f2;
      }

      .cls-5 {
        stroke: #222426;
        stroke-width: 1.52px;
      }
    </style>
    <clipPath id="clippath">
      <rect class="cls-4" x="75.4" y="81.99" width="63.94" height="33.78"/>
    </clipPath>
    <clipPath id="clippath-1">
      <rect class="cls-4" x="75.4" y="81.99" width="63.94" height="33.78"/>
    </clipPath>
  </defs>
  <g id="objects">
    <rect class="cls-5" x=".76" y=".76" width="213.24" height="113.98" rx="7.19" ry="7.19"/>
    <g>
      <path d="M83.52,46.18l-2.09,16.99h-3.51l2.09-16.99h-1.95l.39-3.21h1.95l1.07-8.81c.19-1.7,.49-3.8,2.04-5.36,1.31-1.31,2.92-1.66,4.43-1.66,.97,0,1.95,.15,2.82,.44l-.44,3.41c-.68-.24-1.51-.44-2.14-.44-1.17,0-1.85,.49-2.14,.78-.54,.54-.93,1.46-1.12,3.21l-1.02,8.42h4.97l-.39,3.21h-4.97Z"/>
      <path d="M107.57,42.96h3.51l-2.48,20.21h-3.51l.34-2.82c-.63,.88-1.51,1.8-2.53,2.39-1.46,.83-2.97,1.02-4.19,1.02-2.43,0-4.67-.49-6.57-2.48-1.51-1.61-2.63-3.9-2.63-7.21,0-4.14,1.61-7.16,3.51-8.96,1.9-1.8,4.24-2.63,7.25-2.63,1.36,0,2.82,.19,4.29,.97,1.22,.63,2.04,1.41,2.68,2.39l.34-2.87Zm-11.88,4.53c-1.51,1.41-2.58,3.85-2.58,6.33,0,2,.73,4.04,2.09,5.31,1.22,1.17,2.68,1.51,4.09,1.51,2.19,0,3.85-.73,5.02-2,1.46-1.51,2.29-4.09,2.29-6.57,0-2.73-1.22-4.24-1.9-4.87-.83-.78-2.14-1.61-4.14-1.61-2.24,0-3.85,.92-4.87,1.9Z"/>
      <path d="M133.33,42.96h3.51l-3.9,31.41h-3.51l1.75-14.02c-.54,.73-1.41,1.75-2.82,2.48-1.56,.78-2.97,.93-4.28,.93-2.43,0-4.58-.54-6.43-2.53-2.04-2.14-2.43-4.77-2.43-6.72,0-3.65,1.32-7.06,3.51-9.2,2.39-2.34,5.26-2.82,7.74-2.82,1.46,0,2.73,.19,4.14,1.02,1.12,.63,1.85,1.41,2.39,2.34l.34-2.87Zm-11.93,4.58c-1.71,1.75-2.53,4.48-2.53,6.91s.88,3.75,1.66,4.58c1.12,1.17,2.48,1.61,4.19,1.61,1.85,0,3.6-.49,5.11-2,1.66-1.66,2.53-4.09,2.53-6.48s-.88-3.9-1.66-4.72c-.88-.97-2.29-1.85-4.48-1.85-1.85,0-3.46,.54-4.82,1.95Z"/>
    </g>
    <g id="Artwork_2" data-name="Artwork 2">
      <g class="cls-8">
        <g class="cls-6">
          <path class="cls-2" d="M123.35,115.5h-30.87v-31.34c0-1.19,.97-2.16,2.16-2.16h26.55c1.19,0,2.16,.97,2.16,2.16v31.34Z"/>
          <path class="cls-1" d="M98.69,115.5h-23.29v-19.58c0-1.19,.97-2.16,2.16-2.16h18.97c1.19,0,2.16,.97,2.16,2.16v19.58Z"/>
          <path class="cls-1" d="M139.35,115.5h-28.23v-25.8c0-1.19,.97-2.16,2.16-2.16h23.91c1.19,0,2.16,.97,2.16,2.16v25.8Z"/>
          <path class="cls-9" d="M129.76,115.77h-37.29v-14.91c0-1.19,.97-2.16,2.16-2.16h32.97c1.19,0,2.16,.97,2.16,2.16v14.91Z"/>
          <line class="cls-7" x1="85.54" y1="102.82" x2="84.93" y2="115.5"/>
          <line class="cls-3" x1="85.54" y1="102.82" x2="84.93" y2="115.5"/>
          <line class="cls-7" x1="86.81" y1="102.82" x2="87.31" y2="115.5"/>
          <line class="cls-3" x1="86.81" y1="102.82" x2="87.31" y2="115.5"/>
          <line class="cls-3" x1="85.4" y1="105.66" x2="86.92" y2="105.66"/>
          <line class="cls-3" x1="85.23" y1="109.31" x2="87.06" y2="109.31"/>
          <line class="cls-3" x1="85.05" y1="112.96" x2="87.21" y2="112.96"/>
          <rect class="cls-7" x="105.09" y="106.16" width="5.64" height="9.34"/>
        </g>
      </g>
    </g>
  </g>
</svg>