<?xml version="1.0" encoding="UTF-8"?>
<svg id="Layer_2" data-name="Layer 2" xmlns="http://www.w3.org/2000/svg" xmlns:xlink="http://www.w3.org/1999/xlink" viewBox="0 0 214.75 115.77">
  <defs>
    <style>
      .cls-1 {
        fill: #222426;
      }

      .cls-2 {
        fill: #d97941;
      }

      .cls-3 {
        stroke: #f2f2f2;
        stroke-width: .24px;
      }

      .cls-3, .cls-4, .cls-5 {
        fill: none;
      }

      .cls-3, .cls-5 {
        stroke-miterlimit: 10;
      }

      .cls-6 {
        clip-path: url(#clippath-1);
      }

      .cls-7 {
        fill: #3bd9bc;
      }

      .cls-8 {
        clip-path: url(#clippath);
      }

      .cls-9 {
        fill: #f2f2f2;
      }

      .cls-5 {
        stroke: #222426;
        stroke-width: 1.52px;
      }
    </style>
    <clipPath id="clippath">
      <rect class="cls-4" x="75.4" y="81.99" width="63.94" height="33.78"/>
    </clipPath>
    <clipPath id="clippath-1">
      <rect class="cls-4" x="75.4" y="81.99" width="63.94" height="33.78"/>
    </clipPath>
  </defs>
  <g id="text">
    <rect class="cls-5" x=".76" y=".76" width="213.24" height="113.98" rx="7.19" ry="7.19"/>
    <g>
      <path d="M59.78,42.96h3.5l-2.39,19.72c-.39,3.17-.78,6.33-3.17,8.76-1.31,1.36-3.75,2.92-7.89,2.92-3.51,0-5.6-1.17-6.82-2.39-2.19-2.24-2.29-5.36-2.29-6.57v-.29h3.46v.19c0,1.41,.15,3.16,1.61,4.53,1.27,1.17,2.87,1.41,4.19,1.41,2.63,0,4.24-.92,5.11-1.8,1.8-1.75,2.04-4.33,2.24-6.18l.29-2.92c-.44,.68-1.31,1.75-2.87,2.53-1.12,.54-2.48,.88-3.9,.88-2.87,0-5.06-.88-6.67-2.58-2.09-2.14-2.53-4.77-2.53-6.87,0-3.26,1.12-6.67,3.26-8.86,1.41-1.46,3.75-2.97,7.5-2.97,1.02,0,2.92,.1,4.48,.97,.83,.44,1.8,1.22,2.53,2.39l.34-2.87Zm-11.83,4.48c-1.66,1.56-2.63,3.9-2.63,6.62,0,2.14,.73,3.9,1.8,4.97,1.17,1.17,2.63,1.61,4.14,1.61,2.43,0,4.04-.93,4.97-1.75,1.75-1.61,2.58-4.48,2.58-6.72,0-1.66-.58-3.6-1.75-4.87-.88-.93-2.19-1.7-4.24-1.7-1.9,0-3.51,.58-4.87,1.85Z"/>
      <path d="M85.49,42.96h3.51l-2.48,20.21h-3.51l.34-2.82c-.63,.88-1.51,1.8-2.53,2.39-1.46,.83-2.97,1.02-4.19,1.02-2.43,0-4.67-.49-6.57-2.48-1.51-1.61-2.63-3.9-2.63-7.21,0-4.14,1.61-7.16,3.51-8.96,1.9-1.8,4.24-2.63,7.25-2.63,1.36,0,2.82,.19,4.29,.97,1.22,.63,2.04,1.41,2.68,2.39l.34-2.87Zm-11.88,4.53c-1.51,1.41-2.58,3.85-2.58,6.33,0,2,.73,4.04,2.09,5.31,1.22,1.17,2.68,1.51,4.09,1.51,2.19,0,3.85-.73,5.02-2,1.46-1.51,2.29-4.09,2.29-6.57,0-2.73-1.22-4.24-1.9-4.87-.83-.78-2.14-1.61-4.14-1.61-2.24,0-3.85,.92-4.87,1.9Z"/>
      <path d="M101.02,27.67l-4.38,35.5h-3.51l4.38-35.5h3.51Z"/>
      <path d="M111.15,27.67l-4.38,35.5h-3.51l4.38-35.5h3.51Z"/>
      <path d="M132.28,58.01c-.92,1.56-2.39,3.26-3.75,4.19-2,1.31-4.14,1.56-5.84,1.56-2.39,0-4.67-.44-6.67-2.53-1.22-1.27-2.68-3.51-2.68-7.25,0-3.46,1.31-6.52,3.46-8.67s4.38-2.82,7.06-2.82c3.41,0,5.41,1.22,6.57,2.39,1.46,1.51,2.82,4.28,2.29,8.91h-15.73c-.05,2.87,.92,4.48,1.8,5.36,1.17,1.17,2.53,1.51,3.99,1.51,1.17,0,2.58-.19,3.9-1.12,1.02-.73,2.04-2.04,2.63-3.12l2.97,1.61Zm-2.92-7.16c-.05-1.46-.68-3.02-1.7-3.99-1.12-1.07-2.58-1.27-3.7-1.27-1.8,0-3.21,.49-4.43,1.7-.88,.88-1.61,2.14-1.95,3.55h11.78Z"/>
      <path d="M139.39,42.96h3.51l-.29,2.19c.39-.63,1.02-1.36,2.04-1.95,.97-.54,1.85-.73,2.92-.73,1.22,0,2.14,.29,2.97,.83l-2.04,3.16c-.39-.29-1.02-.68-2.09-.68-.97,0-1.9,.29-2.68,1.07-1.41,1.36-1.75,3.65-2,5.65l-1.32,10.66h-3.51l2.48-20.21Z"/>
      <path d="M159.45,61.27l-7.06-18.31h3.89l5.36,14.46,8.38-14.46h3.99l-18.7,31.41h-3.89l8.03-13.1Z"/>
    </g>
  </g>
  <g id="objects">
    <g id="Artwork_2" data-name="Artwork 2">
      <g class="cls-8">
        <g class="cls-6">
          <path class="cls-2" d="M123.35,115.5h-30.87v-31.34c0-1.19,.97-2.16,2.16-2.16h26.55c1.19,0,2.16,.97,2.16,2.16v31.34Z"/>
          <path class="cls-1" d="M98.69,115.5h-23.29v-19.58c0-1.19,.97-2.16,2.16-2.16h18.97c1.19,0,2.16,.97,2.16,2.16v19.58Z"/>
          <path class="cls-1" d="M139.35,115.5h-28.23v-25.8c0-1.19,.97-2.16,2.16-2.16h23.91c1.19,0,2.16,.97,2.16,2.16v25.8Z"/>
          <path class="cls-9" d="M129.76,115.77h-37.29v-14.91c0-1.19,.97-2.16,2.16-2.16h32.97c1.19,0,2.16,.97,2.16,2.16v14.91Z"/>
          <line class="cls-7" x1="85.54" y1="102.82" x2="84.93" y2="115.5"/>
          <line class="cls-3" x1="85.54" y1="102.82" x2="84.93" y2="115.5"/>
          <line class="cls-7" x1="86.81" y1="102.82" x2="87.31" y2="115.5"/>
          <line class="cls-3" x1="86.81" y1="102.82" x2="87.31" y2="115.5"/>
          <line class="cls-3" x1="85.4" y1="105.66" x2="86.92" y2="105.66"/>
          <line class="cls-3" x1="85.23" y1="109.31" x2="87.06" y2="109.31"/>
          <line class="cls-3" x1="85.05" y1="112.96" x2="87.21" y2="112.96"/>
          <rect class="cls-7" x="105.09" y="106.16" width="5.64" height="9.34"/>
        </g>
      </g>
    </g>
  </g>
</svg>